<?xml version="1.0" standalone="no"?>
<!DOCTYPE svg PUBLIC "-//W3C//DTD SVG 20010904//EN"
 "http://www.w3.org/TR/2001/REC-SVG-20010904/DTD/svg10.dtd">
<svg version="1.0" xmlns="http://www.w3.org/2000/svg"
 width="80.000000pt" height="80.000000pt" viewBox="0 0 80.000000 80.000000"
 preserveAspectRatio="xMidYMid meet">
<metadata>
Created by potrace 1.14, written by Peter Selinger 2001-2017
</metadata>
<g transform="translate(0.000000,80.000000) scale(0.100000,-0.100000)"
fill="#000000" stroke="none">
<path d="M425 757 c-3 -7 -4 -85 -3 -172 l3 -160 170 0 170 0 0 170 0 170
-168 3 c-131 2 -169 0 -172 -11z m226 -107 c41 -40 37 -74 -8 -78 -29 -3 -33
-7 -33 -33 0 -24 -4 -29 -25 -29 -38 0 -75 42 -75 85 0 79 84 112 141 55z"/>
<path d="M580 650 c0 -5 7 -10 16 -10 8 0 12 5 9 10 -3 6 -10 10 -16 10 -5 0
-9 -4 -9 -10z"/>
<path d="M540 624 c0 -8 5 -12 10 -9 6 3 10 10 10 16 0 5 -4 9 -10 9 -5 0 -10
-7 -10 -16z"/>
<path d="M625 631 c-6 -11 9 -23 19 -14 9 9 7 23 -3 23 -6 0 -12 -4 -16 -9z"/>
<path d="M530 580 c0 -5 5 -10 10 -10 6 0 10 5 10 10 0 6 -4 10 -10 10 -5 0
-10 -4 -10 -10z"/>
<path d="M32 593 l3 -168 168 -3 167 -2 0 170 0 170 -170 0 -170 0 2 -167z
m183 77 c4 -6 10 -8 15 -5 5 3 12 0 16 -6 4 -7 3 -9 -4 -5 -13 8 -13 -33 1
-51 5 -7 6 -17 3 -22 -4 -5 -2 -12 4 -16 19 -12 10 -25 -16 -25 -19 0 -25 -4
-20 -15 4 -10 -1 -15 -14 -15 -13 0 -18 5 -14 15 5 11 -2 15 -26 15 -31 0 -32
1 -17 18 10 10 14 22 11 25 -4 4 -1 14 7 23 11 14 12 18 1 22 -10 3 -7 11 9
28 25 26 35 29 44 14z"/>
<path d="M26 354 c-9 -23 -7 -307 2 -322 7 -9 48 -12 173 -10 l164 3 0 170 0
170 -166 3 c-145 2 -167 0 -173 -14z m254 -88 c0 -8 -13 -24 -30 -36 -17 -12
-27 -27 -24 -35 3 -8 -7 -30 -22 -50 -32 -43 -61 -43 -84 -2 -14 26 -14 29 5
42 11 8 28 22 37 31 9 9 24 14 32 11 10 -4 24 4 38 23 23 32 48 40 48 16z"/>
<path d="M167 185 c-8 -18 11 -31 25 -17 11 11 3 32 -12 32 -4 0 -10 -7 -13
-15z"/>
<path d="M424 357 c-2 -7 -3 -82 -2 -167 l3 -155 170 0 170 0 3 145 c1 80 0
155 -3 168 -5 22 -8 22 -171 22 -125 0 -166 -3 -170 -13z m202 -124 c-3 -4 1
-15 11 -25 12 -13 13 -18 3 -18 -10 0 -9 -5 3 -18 20 -22 13 -32 -19 -32 -17
0 -22 -4 -18 -15 7 -16 -6 -19 -46 -8 l-25 7 25 7 25 7 -27 1 c-31 1 -36 12
-13 31 13 11 13 15 3 22 -10 7 -9 11 5 22 13 10 15 15 5 19 -9 3 -6 12 11 30
l24 26 20 -25 c10 -14 17 -28 13 -31z m27 -110 c-7 -2 -19 -2 -25 0 -7 3 -2 5
12 5 14 0 19 -2 13 -5z"/>
</g>
</svg>
